<?xml version="1.0" encoding="UTF-8"?>
<svg id="Capa_1" xmlns="http://www.w3.org/2000/svg" version="1.1" xmlns:serif="http://www.serif.com/" viewBox="0 0 456 456">
  <!-- Generator: Adobe Illustrator 29.6.1, SVG Export Plug-In . SVG Version: 2.1.1 Build 9)  -->
  <defs>
    <style>
      .st0 {
        fill: #fff;
      }
    </style>
  </defs>
  <path class="st0" d="M402.4,48.8v358.4H44V48.8h358.4ZM209.39,110.34c2.9-12.46-.52-31.29-10.66-39.87-12.45-10.55-26.67.96-33.55,11.93-.65,1.04-3.48,6.75-3.93,6.91-4.83-.49-9.17.41-13.18,3.17-9.77-8.08-30.26-17.11-39.68-4.27-5.09,6.93-3.83,20.21-1.64,28.09,1.24,4.48,3.36,8.6,5.43,12.73-2.18,4.18-3.01,8.65-3.52,13.3,1.24,29.23-1.6,59.76,0,88.84,1,18.21,12.37,31.34,30.61,33.72,56.34.6,112.86.59,169.22,0,17.17-2.02,29.24-15.55,30.27-32.67-1.28-29.8,1.65-60.95,0-90.59-.85-15.32-10.62-27.73-25.86-30.61.44-6.59-.47-12.39-8.25-12.7-10.38-.42-21.34.61-31.8.17-2.27.29-6.14,3.91-6.14,6.1v5.77h-57.34ZM98.2,289.71c-.46-1.18-.89-2.5-1.44-3.63-1.09-2.2-5.01-10.81-6.27-11.91-1.83-1.59-7.26-1.61-8.68.37s-.33,3.77.6,5.61c3.15,6.23,7.8,12.37,11.16,18.56.44,4.41-.3,9.21.07,13.56.53,6.3,8.84,6.19,9.45.69.5-4.47-.51-9.63.16-14.17,3.24-6.01,7.28-11.88,10.39-17.94.63-1.22,1.72-2.93,1.72-4.26.01-4.33-6.61-4.38-9.22-2.29l-7.95,15.4ZM200.3,290.41v-14.16c0-.09-.63-1.54-.74-1.7-1.71-2.39-7.69-2-8.53,1.17l-.09,38.22c.64,3.23,5.37,3.74,7.75,2.31.46-.27,1.62-1.91,1.62-2.23v-16.61c3.88,4.97,7.02,10.53,10.9,15.5.74.94,1.77,2.6,2.75,3.2,3.3,2.04,9.52.34,8.14-4.3l-13.35-18.13,11.77-15.04c2.71-4.78-4.12-6.97-7.61-4.82l-12.6,16.59ZM342.87,273.36c-5.1.87-5.81,8.06.62,8.65,3.09.28,6.46-.43,6.8-4.06.39-4.12-4.13-5.15-7.42-4.59ZM358.61,273.37c-5.74.83-5.46,7.86.29,8.62,3.73.49,7.42-1.07,6.77-5.37-.5-3.28-4.36-3.64-7.05-3.25ZM166.38,296.01h-8.22c-4.32,0-9.75,4.56-10.28,8.95-1.43,11.87,11.14,15.19,19.35,8.86,3.03,6.41,13.19,2.16,9.58-4.3-.92-1.65-1.62-1.71-1.7-4.26-.16-5.21,1.29-11.34-1.2-16.26-3.68-7.26-16.33-7.88-22.05-2.79-5.06,4.51-1.76,10.87,3.45,7.64,1.4-.86,2.34-2.82,4.07-3.27,4.34-1.13,7.11.97,7,5.43ZM242.96,296.01h-8.22c-1.39,0-5.34,1.64-6.58,2.51-5.81,4.09-5.05,13.85,1.27,17.13,5,2.6,10.32,1.2,14.71-1.79,2.49,5.05,10.1,3.9,9.67-2.31-.18-2.6-1.86-2.64-2.09-4.2-.96-6.67,2.14-15.74-3.34-21.15-4.87-4.81-17.01-4.42-21.17,1.24-3.26,4.44-.18,9.38,4.8,6.2,2.01-1.28,2.21-2.93,5.16-3.23,4.09-.42,5.72,1.64,5.77,5.59ZM326.16,313.85c2.47,5.79,10.96,3.32,9.38-3.61-.3-1.3-1.81-1.78-2.02-2.88-1.14-6.01,1.76-13.92-2.3-19.73-4.29-6.12-16.02-6.2-21.31-1.42-3.43,3.1-3.38,9.61,2.3,8.24,1.9-.46,2.96-2.99,5.03-3.71,4.41-1.55,7.66.54,7.19,5.26-8.76-.87-19.65,1.25-18.53,12.41.61,6.11,6.35,9.09,12.06,8.57,3.16-.29,5.43-2.21,8.21-3.13ZM134.91,313.14c.22,4.27,6.64,5.31,8.32,1.5l-.09-28.78c-.97-3.77-8.14-3.3-8.58.53-.66,5.66.7,12.25-.5,18.03-1.01,4.85-8.99,5.5-9.9.07-.86-5.11,1.12-14.89-.7-19.23-1.29-3.08-8.29-2.7-8.83,1.83-.49,4.11-.4,17.7.52,21.52,2.25,9.29,13.61,11.09,19.76,4.53ZM268.14,307.2l-5.18-22.27c-1-2.22-5.85-1.89-7.4-.61-1.65,1.36-.97,3.02-.61,4.78,1.31,6.36,4.56,19.05,6.98,24.84.48,1.14.79,1.99,2.11,2.43,2.23.75,8.01.98,9.43-1.22l4.82-18.44,5.29,18.66c2.12,2.53,9.76,2.25,11.16-1.33,1.63-8.47,6.08-17.72,7.51-26.06.19-1.08.41-2.31-.22-3.3-1.21-1.91-7.04-1.83-8.16.52l-5.27,21.65-5.6-21.33c-1.18-1.48-7.22-1.45-8.69-.3-.82.64-1.14,1.78-1.45,2.75-1.66,5.2-2.59,11.65-3.91,17.07-.14.56-.25,1.97-.81,2.16ZM341.32,315.83c2.3,2.09,7.36,1.42,7.91-2.19,1.18-7.67-.82-18.21,0-26.18-.66-4.3-8.64-4.03-9.04.36.6,7.95-.92,17.37-.03,25.14.09.82.56,2.32,1.16,2.86ZM358.95,284.55c-2.09.33-3.05,1.59-3.37,3.62.44,7.79-.7,16.42-.04,24.11.55,6.46,8.47,5.57,9.08,1.72-.68-8.25.98-18.16.03-26.21-.34-2.84-3.19-3.63-5.69-3.23ZM142.61,338.67v-11.02c-.15-4.48-8.21-4.61-9.01-.61.59,11.6-1.06,24.49-.09,35.95.08.91.3,2.33.75,3.09,1.39,2.32,6.91,2.29,8.03-.28.28-.64.68-3.18.68-3.89.02-4.59-1.15-9.98.15-14.51,1.54-5.35,8.98-5.85,9.9-.43.79,4.7-1.07,15.22.71,18.87.92,1.88,3.28,2.08,5.15,1.86,2.39-.29,3.48-2.51,3.68-4.71.47-5.32.5-19-2.18-23.38-3.62-5.91-13.29-5.92-17.76-.94ZM268.13,338.67v-11.71c0-3.55-8.98-3.89-9.01.43.62,11.57-1.11,24.54-.1,35.95.18,2.01.86,3.87,3.07,4.27s5.66-.19,5.69-3.06c6.29,6.19,16.01,3.41,20.11-3.84,3.7-6.56,3.02-17.23-2.8-22.39-4.75-4.22-12.61-4.54-16.97.36ZM110.44,353.35h7.52c14.52,0,18.16-23.83,1.94-27.12-3.65-.74-11.48-.92-15.19-.47-2.07.25-3.69,1.38-3.73,3.61l.09,35.61c.92,4.1,9.37,3.2,9.37-.28v-11.36ZM213.23,335.52c.28-4.98-.1-7.64-5.77-6.99-4.11.47-3.27,3.84-3.32,6.99-7.66-1.64-7.56,9.65,0,8.04v15.56c0,2.3,2.13,5.81,4.08,7.11,4.05,2.7,15.43,2.41,13.59-4.5-.85-3.19-4.27-1.57-6.49-2.25-.58-.18-2.08-1.63-2.08-2.12v-13.81h5.42c2.79,0,3.28-4.99,2.04-6.9-.23-.35-1.46-1.14-1.69-1.14h-5.77ZM339.81,356.67c-.57-3.89.43-9.07,0-13.11h5.77c.27,0,1.81-1.03,2.02-1.48.71-1.55.57-6.56-1.67-6.56h-6.12c-.11-2.64.87-6.47-2.65-6.97-5.61-.8-7.12,1.71-6.1,6.97-7.9-1.7-8.13,9.34-.35,8.04.73,7.49-3.24,23.01,7.87,24.12,3.77.38,9.63.37,9.64-4.72.01-6.21-7.57-.55-8.42-6.29ZM178.53,335.26c-6.37.87-11.43,6.83-12.12,13.06-2.75,24.78,29,25.71,31.04,5.17,1.19-11.96-6.97-19.85-18.92-18.22ZM235.53,335.26c-15.72,2.13-16.92,28.25-.84,32.13,13.24,3.19,22.1-8.07,19.3-20.7-1.98-8.9-9.85-12.59-18.46-11.43ZM305.46,335.26c-15.17,2.05-17.01,27.36-1.67,31.91,24.99,7.41,29.2-35.63,1.67-31.91Z"/>
  <path d="M209.39,110.34h57.34v-5.77c0-2.19,3.87-5.81,6.14-6.1,10.46.44,21.41-.6,31.8-.17,7.78.32,8.7,6.11,8.25,12.7,15.24,2.88,25.01,15.3,25.86,30.61,1.64,29.65-1.28,60.79,0,90.59-1.02,17.12-13.1,30.65-30.27,32.67-56.36.59-112.88.6-169.22,0-18.25-2.38-29.61-15.51-30.61-33.72-1.6-29.08,1.24-59.61,0-88.84.5-4.66,1.33-9.12,3.52-13.3-2.07-4.13-4.18-8.25-5.43-12.73-2.19-7.88-3.45-21.16,1.64-28.09,9.42-12.84,29.91-3.81,39.68,4.27,4.01-2.76,8.35-3.65,13.18-3.17.45-.16,3.28-5.87,3.93-6.91,6.88-10.96,21.1-22.47,33.55-11.93,10.13,8.58,13.55,27.41,10.66,39.87ZM171.28,97.05h.51c1.8-1.85,11.13-6.81,12.01-2.54.65,3.13-3.4,3.38-5.55,4.45-.89.44-4.42,2.59-4.69,3.32.4,3.54.27,6.88-.85,10.27,6.38,5.72,23.67,12.47,29.26,3.14,3.73-6.23,3.25-17.76,1.71-24.65-1.86-8.36-8.31-21.3-18.71-18.56-8.1,2.13-14.55,11.84-18.26,18.82-.01.89,5,3.77,4.56,5.76ZM144.3,96.41c-8.89-6.61-30.45-16.49-33.42.91-3.19,18.71,12.23,53.36,32.41,29.26,1.18-1.41,4.47-6.05,5-7.62.4-1.19-1.55-2.58-2.33-3.77-1.37-2.09-1.96-4.08-2.64-6.46-1.1-.14-2.22-.44-3.33-.52-2.36-.17-8.78,1.19-8.94-2.29-.18-4.03,9.48-2.41,11.89-2.24l1.35-7.28ZM157.56,94.35c-13.62.35-11.89,23.06,1.64,22.29s12.09-22.64-1.64-22.29ZM306.94,110.69c.56-1.39.66-6.09-.94-6.58l-32.83.26c-1.15.82-1.24,5.21-.32,6.32h34.09ZM114.28,139.89c-.34,3.06,0,7.28,0,10.49,0,.04-.67.81.17.86.08,0,.81-.36,1.38-.36,21.21-.2,42.47.07,63.66.2,22.86-26.05,64.24-26.5,87.05-.16l.72.33c20.19-.49,40.6-.56,60.85-.37,1.68.02,3.73.79,5.4-.16v-9.79c0-12.81-12.69-24.79-25.33-25.02l-99.67.02c-1.12.21-1.36,2.03-1.98,2.92-8.63,12.33-27.03,5.48-36.84-1.81-4.34,4.6-10.59,4.92-16.54,4.21-5.74,11.12-19.06,24.55-32.35,16.3-1.62-1.01-2.91-2.46-4.26-3.78-.69,0-2.18,5.27-2.27,6.11ZM219.46,136.67c-38.43,2.7-60.43,45.33-41.6,78.8,18.72,33.28,66.11,35.58,88.11,4.43,25.47-36.06-2.19-86.34-46.52-83.23ZM175.82,156.15l-61.88.54c.55,4.7.41,9.58.36,14.34-.2,18.23-.66,36.62-.02,54.88.12,3.46-.17,6.62.4,10.09,2.27,13.83,13.76,22.62,27.38,23.67h164.37c16.2-1.61,26.17-13.15,27.1-29.2v-74.32s-62.6,0-62.6,0c-.26.28,2.29,3.91,2.63,4.54,25.54,47.5-19.04,101.21-70.29,82.88-35.38-12.65-48.15-56.65-27.44-87.42Z"/>
  <path d="M268.14,307.2c.56-.19.67-1.59.81-2.16,1.31-5.43,2.25-11.87,3.91-17.07.31-.96.63-2.11,1.45-2.75,1.47-1.15,7.51-1.18,8.69.3l5.6,21.33,5.27-21.65c1.12-2.34,6.94-2.42,8.16-.52.63.99.41,2.22.22,3.3-1.43,8.33-5.88,17.59-7.51,26.06-1.4,3.58-9.04,3.85-11.16,1.33l-5.29-18.66-4.82,18.44c-1.42,2.19-7.2,1.97-9.43,1.22-1.31-.44-1.63-1.29-2.11-2.43-2.42-5.79-5.67-18.48-6.98-24.84-.36-1.75-1.04-3.41.61-4.78,1.55-1.28,6.41-1.61,7.4.61l5.18,22.27Z"/>
  <path d="M200.3,290.41l12.6-16.59c3.5-2.16,10.32.04,7.61,4.82l-11.77,15.04,13.35,18.13c1.38,4.64-4.84,6.34-8.14,4.3-.97-.6-2.01-2.26-2.75-3.2-3.88-4.96-7.02-10.53-10.9-15.5v16.61c0,.32-1.16,1.96-1.62,2.23-2.38,1.43-7.1.92-7.75-2.31l.09-38.22c.84-3.17,6.82-3.56,8.53-1.17.12.16.74,1.61.74,1.7v14.16Z"/>
  <path d="M268.13,338.67c4.36-4.9,12.22-4.57,16.97-.36,5.81,5.16,6.5,15.83,2.8,22.39-4.1,7.25-13.81,10.03-20.11,3.84-.03,2.87-3.43,3.47-5.69,3.06s-2.89-2.27-3.07-4.27c-1.01-11.4.72-24.38.1-35.95.02-4.32,9.01-3.99,9.01-.43v11.71ZM274.25,343.06c-5.79.1-6.63,6.3-6.12,10.82.81,7.24,10.88,8.25,12.5.27.95-4.68-.51-11.19-6.39-11.09Z"/>
  <path d="M142.61,338.67c4.47-4.98,14.14-4.97,17.76.94,2.68,4.38,2.65,18.06,2.18,23.38-.19,2.21-1.29,4.42-3.68,4.71-1.87.23-4.23.02-5.15-1.86-1.78-3.65.08-14.17-.71-18.87-.91-5.42-8.36-4.93-9.9.43-1.3,4.53-.12,9.92-.15,14.51,0,.71-.41,3.26-.68,3.89-1.12,2.57-6.64,2.6-8.03.28-.46-.76-.68-2.19-.75-3.09-.97-11.45.69-24.34.09-35.95.81-4,8.86-3.86,9.02.61v11.02Z"/>
  <path d="M110.44,353.35v11.36c0,3.47-8.45,4.37-9.37.28l-.09-35.61c.04-2.23,1.66-3.36,3.73-3.61,3.71-.45,11.54-.27,15.19.47,16.22,3.29,12.58,27.12-1.94,27.12h-7.52ZM110.44,346.01h5.07c.47,0,2.91-1.1,3.44-1.46,2.45-1.65,2.79-4.7,1.9-7.38-1.39-4.21-6.81-3.73-10.41-3.75v12.59Z"/>
  <path d="M326.16,313.85c-2.77.92-5.04,2.84-8.21,3.13-5.71.53-11.44-2.46-12.06-8.57-1.12-11.16,9.77-13.28,18.53-12.41.47-4.72-2.77-6.81-7.19-5.26-2.07.72-3.13,3.25-5.03,3.71-5.68,1.37-5.73-5.14-2.3-8.24,5.29-4.78,17.02-4.7,21.31,1.42,4.06,5.8,1.16,13.72,2.3,19.73.21,1.1,1.72,1.58,2.02,2.88,1.57,6.93-6.91,9.4-9.38,3.61ZM318.74,301.69c-6.72,1.12-5.03,10.31,2.38,7.27,2.46-1.01,4.02-3.75,3.24-6.41-.41-1.4-4.39-1.06-5.61-.86Z"/>
  <path d="M166.38,296.01c.11-4.46-2.66-6.56-7-5.43-1.73.45-2.67,2.41-4.07,3.27-5.2,3.22-8.51-3.13-3.45-7.64,5.73-5.1,18.38-4.47,22.05,2.79,2.49,4.93,1.04,11.06,1.2,16.26.08,2.55.78,2.61,1.7,4.26,3.6,6.46-6.55,10.7-9.58,4.3-8.21,6.33-20.77,3.02-19.35-8.86.53-4.39,5.96-8.95,10.28-8.95h8.22ZM160.69,301.69c-6.56,1.1-4.82,9.71,1.92,7.51,2.85-.93,4.33-3.36,3.77-6.37-.31-1.68-4.34-1.37-5.68-1.14Z"/>
  <path d="M242.96,296.01c-.05-3.96-1.68-6.01-5.77-5.59-2.95.3-3.15,1.95-5.16,3.23-4.98,3.18-8.06-1.76-4.8-6.2,4.15-5.66,16.3-6.05,21.17-1.24,5.48,5.41,2.38,14.48,3.34,21.15.23,1.56,1.91,1.6,2.09,4.2.42,6.21-7.18,7.36-9.67,2.31-4.39,2.99-9.72,4.39-14.71,1.79-6.32-3.29-7.08-13.05-1.27-17.13,1.24-.87,5.19-2.51,6.58-2.51h8.22ZM237.28,301.69c-6.63.97-5.17,9.81,1.91,7.5,2.92-.95,4.34-3.3,3.76-6.36-.34-1.82-4.18-1.36-5.67-1.14Z"/>
  <path d="M134.91,313.14c-6.15,6.55-17.52,4.76-19.76-4.53-.93-3.83-1.02-17.41-.52-21.52.54-4.53,7.55-4.9,8.83-1.83,1.82,4.34-.16,14.12.7,19.23.91,5.42,8.89,4.78,9.9-.07,1.2-5.78-.16-12.38.5-18.03.45-3.83,7.61-4.29,8.58-.53l.09,28.78c-1.68,3.81-8.1,2.77-8.32-1.5Z"/>
  <path d="M235.53,335.26c8.61-1.16,16.48,2.53,18.46,11.43,2.8,12.62-6.05,23.89-19.3,20.7-16.08-3.88-14.89-30,.84-32.13ZM238.34,342.94c-9.21.74-7.66,20.62,3.3,16.27,5.89-2.34,5.3-16.96-3.3-16.27Z"/>
  <path d="M305.46,335.26c27.53-3.72,23.32,39.31-1.67,31.91-15.34-4.55-13.5-29.85,1.67-31.91ZM307.91,342.94c-7.18,1.04-7.3,14.17-1.57,16.44,11.02,4.36,12.37-18,1.57-16.44Z"/>
  <path d="M178.53,335.26c11.95-1.63,20.11,6.27,18.92,18.22-2.04,20.55-33.79,19.61-31.04-5.17.69-6.23,5.75-12.19,12.12-13.06ZM181.34,342.94c-8.17.82-7.81,15.47-1.07,16.62,11.3,1.94,10.47-17.57,1.07-16.62Z"/>
  <path d="M98.2,289.71l7.95-15.4c2.61-2.09,9.23-2.04,9.22,2.29,0,1.33-1.09,3.03-1.72,4.26-3.11,6.06-7.14,11.93-10.39,17.94-.67,4.54.34,9.7-.16,14.17-.61,5.5-8.92,5.61-9.45-.69-.37-4.36.37-9.16-.07-13.56-3.36-6.19-8.02-12.32-11.16-18.56-.93-1.85-2.02-3.63-.6-5.61s6.85-1.96,8.68-.37c1.26,1.1,5.18,9.71,6.27,11.91.56,1.13.99,2.45,1.44,3.63Z"/>
  <path d="M213.23,335.52h5.77c.22,0,1.45.79,1.69,1.14,1.25,1.91.76,6.9-2.04,6.9h-5.42v13.81c0,.49,1.5,1.94,2.08,2.12,2.22.68,5.64-.95,6.49,2.25,1.84,6.9-9.54,7.2-13.59,4.5-1.94-1.3-4.08-4.81-4.08-7.11v-15.56c-7.56,1.61-7.66-9.68,0-8.04.05-3.16-.79-6.52,3.32-6.99,5.67-.65,6.05,2.02,5.77,6.99Z"/>
  <path d="M339.81,356.67c.85,5.75,8.43.09,8.42,6.29-.01,5.08-5.87,5.09-9.64,4.72-11.11-1.12-7.14-16.64-7.87-24.12-7.78,1.3-7.56-9.75.35-8.04-1.02-5.26.48-7.77,6.1-6.97,3.51.5,2.53,4.33,2.65,6.97h6.12c2.24,0,2.38,5.01,1.67,6.56-.2.45-1.74,1.48-2.02,1.48h-5.77c.43,4.04-.57,9.22,0,13.11Z"/>
  <path d="M341.32,315.83c-.59-.54-1.06-2.04-1.16-2.86-.89-7.78.64-17.19.03-25.14.4-4.39,8.38-4.66,9.04-.36-.82,7.97,1.18,18.51,0,26.18-.56,3.6-5.61,4.28-7.91,2.19Z"/>
  <path d="M358.95,284.55c2.5-.4,5.36.39,5.69,3.23.96,8.05-.71,17.96-.03,26.21-.61,3.85-8.53,4.74-9.08-1.72-.65-7.69.49-16.32.04-24.11.32-2.02,1.28-3.28,3.37-3.62Z"/>
  <path d="M342.87,273.36c3.29-.56,7.81.48,7.42,4.59-.34,3.63-3.71,4.34-6.8,4.06-6.43-.59-5.71-7.79-.62-8.65Z"/>
  <path d="M358.61,273.37c2.69-.39,6.55-.03,7.05,3.25.66,4.29-3.04,5.86-6.77,5.37-5.74-.76-6.03-7.79-.29-8.62Z"/>
  <path class="st0" d="M175.82,156.15c-20.71,30.77-7.94,74.76,27.44,87.42,51.25,18.33,95.83-35.38,70.29-82.88-.34-.63-2.89-4.26-2.63-4.54h62.59s.01,74.32.01,74.32c-.93,16.05-10.9,27.59-27.1,29.2h-164.37c-13.62-1.05-25.11-9.84-27.38-23.67-.57-3.47-.28-6.63-.4-10.09-.64-18.26-.18-36.65.02-54.88.05-4.76.19-9.64-.36-14.34l61.88-.54Z"/>
  <path class="st0" d="M114.28,139.89c.09-.84,1.58-6.1,2.27-6.11,1.35,1.32,2.64,2.77,4.26,3.78,13.29,8.25,26.61-5.17,32.35-16.3,5.95.71,12.19.38,16.54-4.21,9.81,7.29,28.21,14.14,36.84,1.81.62-.89.86-2.71,1.98-2.92l99.67-.02c12.64.23,25.33,12.21,25.33,25.02v9.79c-1.67.94-3.72.17-5.4.16-20.26-.19-40.66-.12-60.85.37l-.72-.33c-22.81-26.34-64.19-25.9-87.05.16-21.19-.13-42.45-.4-63.66-.2-.58,0-1.3.37-1.38.36-.84-.05-.17-.82-.17-.86,0-3.21-.34-7.43,0-10.49Z"/>
  <path class="st0" d="M219.46,136.67c44.32-3.11,71.99,47.17,46.52,83.23-22.01,31.16-69.39,28.85-88.11-4.43-18.83-33.47,3.16-76.11,41.6-78.8ZM219.11,145.06c-30.71,2.72-49.16,36.43-35.55,64.01,12.49,25.3,44.77,32.47,67.05,15.05,34.73-27.16,12.14-82.93-31.5-79.06Z"/>
  <path class="st0" d="M171.28,97.05c.44-1.99-4.57-4.88-4.56-5.76,3.71-6.98,10.16-16.69,18.26-18.82,10.4-2.73,16.85,10.2,18.71,18.56,1.53,6.89,2.02,18.42-1.71,24.65-5.59,9.33-22.87,2.58-29.26-3.14,1.12-3.39,1.25-6.72.85-10.27.27-.73,3.8-2.88,4.69-3.32,2.15-1.07,6.2-1.32,5.55-4.45-.88-4.27-10.21.69-12.01,2.53h-.51Z"/>
  <path class="st0" d="M144.3,96.41l-1.35,7.28c-2.41-.16-12.07-1.79-11.89,2.24.15,3.48,6.58,2.11,8.94,2.29,1.11.08,2.22.38,3.33.52.68,2.38,1.26,4.37,2.64,6.46.78,1.19,2.73,2.58,2.33,3.77-.52,1.56-3.82,6.2-5,7.62-20.18,24.09-35.6-10.55-32.41-29.26,2.96-17.4,24.53-7.52,33.42-.91Z"/>
  <path class="st0" d="M157.56,94.35c13.73-.35,14.78,21.54,1.64,22.29s-15.26-21.94-1.64-22.29Z"/>
  <path class="st0" d="M306.94,110.69h-34.09c-.92-1.11-.83-5.5.32-6.32l32.83-.26c1.6.48,1.5,5.19.94,6.58Z"/>
  <path class="st0" d="M274.25,343.06c5.88-.1,7.34,6.41,6.39,11.09-1.62,7.99-11.69,6.97-12.5-.27-.51-4.52.33-10.72,6.12-10.82Z"/>
  <path class="st0" d="M110.44,346.01v-12.59c3.59.02,9.02-.46,10.41,3.75.89,2.68.55,5.73-1.9,7.38-.53.35-2.97,1.46-3.44,1.46h-5.07Z"/>
  <path class="st0" d="M318.74,301.69c1.22-.2,5.2-.54,5.61.86.79,2.66-.77,5.4-3.24,6.41-7.41,3.03-9.09-6.15-2.38-7.27Z"/>
  <path class="st0" d="M160.69,301.69c1.34-.23,5.37-.54,5.68,1.14.56,3.01-.92,5.44-3.77,6.37-6.74,2.2-8.47-6.41-1.92-7.51Z"/>
  <path class="st0" d="M237.28,301.69c1.49-.22,5.32-.68,5.67,1.14.58,3.06-.84,5.41-3.76,6.36-7.08,2.31-8.54-6.53-1.91-7.5Z"/>
  <path class="st0" d="M238.34,342.94c8.6-.69,9.2,13.93,3.3,16.27-10.97,4.35-12.51-15.53-3.3-16.27Z"/>
  <path class="st0" d="M307.91,342.94c10.8-1.56,9.45,20.8-1.57,16.44-5.73-2.27-5.62-15.4,1.57-16.44Z"/>
  <path class="st0" d="M181.34,342.94c9.4-.94,10.24,18.56-1.07,16.62-6.75-1.16-7.1-15.8,1.07-16.62Z"/>
  <path d="M219.11,145.06c43.64-3.87,66.23,51.9,31.5,79.06-22.28,17.42-54.56,10.25-67.05-15.05-13.62-27.58,4.84-61.28,35.55-64.01ZM219.11,150.66c-25.66,2.26-41.93,30.33-31.75,53.92,9.78,22.66,37.68,31.24,58.16,16.89,32.76-22.96,14.15-74.39-26.4-70.81Z"/>
  <path class="st0" d="M219.11,150.66c40.56-3.57,59.16,47.85,26.4,70.81-20.48,14.35-48.38,5.78-58.16-16.89-10.18-23.59,6.09-51.66,31.75-53.92ZM195.66,181.75c-12.88,2.04-8.47,25.27,5.23,20.26,11.02-4.03,7.95-22.35-5.23-20.26ZM246.71,181.75c-11.41,1.82-9.48,21.59,2.35,20.9,13.12-.76,12.62-23.29-2.35-20.9ZM215.94,195.4c-.83-.77-2.56-.86-3.37.12-1.7,2.06.11,5.67,1.56,7.45,4.65,5.69,14.58,5.39,18.83-.69,1.24-1.78,2.98-6.57-.06-7.25-3.3-.74-2.88,2.84-4.22,4.73-2.55,3.58-9.62,2.85-11.58-1.16-.4-.81-.62-2.68-1.17-3.19Z"/>
  <path d="M195.66,181.75c13.17-2.09,16.24,16.23,5.23,20.26-13.7,5.01-18.11-18.22-5.23-20.26ZM195.31,185.23c-4.21.87-2.13,7.99,1.97,5.84,3.14-1.64,1.29-6.51-1.97-5.84Z"/>
  <path d="M246.71,181.75c14.97-2.39,15.48,20.14,2.35,20.9-11.83.69-13.76-19.08-2.35-20.9ZM246.36,185.24c-4.33.42-3.18,7.84,1.4,5.95,3.14-1.29,1.95-6.28-1.4-5.95Z"/>
  <path d="M215.94,195.4c.56.52.78,2.38,1.17,3.19,1.96,4.02,9.03,4.74,11.58,1.16,1.34-1.88.91-5.47,4.22-4.73,3.03.68,1.3,5.47.06,7.25-4.25,6.09-14.18,6.38-18.83.69-1.45-1.78-3.26-5.39-1.56-7.45.81-.98,2.54-.9,3.37-.12Z"/>
  <path class="st0" d="M195.31,185.23c3.27-.67,5.11,4.19,1.97,5.84-4.1,2.15-6.18-4.97-1.97-5.84Z"/>
  <path class="st0" d="M246.36,185.24c3.35-.33,4.54,4.66,1.4,5.95-4.59,1.88-5.73-5.53-1.4-5.95Z"/>
</svg>