<?xml version="1.0" encoding="UTF-8"?>
<svg id="Capa_1" xmlns="http://www.w3.org/2000/svg" version="1.1" xmlns:serif="http://www.serif.com/" viewBox="0 0 456 456">
  <!-- Generator: Adobe Illustrator 29.6.1, SVG Export Plug-In . SVG Version: 2.1.1 Build 9)  -->
  <defs>
    <style>
      .st0 {
        fill: #fff;
      }
    </style>
  </defs>
  <path class="st0" d="M174.55,72.71c-.8.2-2.7.6-4.15.9s-3.85,1.1-5.35,1.85c-1.5.7-3,1.1-3.3.9-.4-.25-.45-.15-.2.3.3.5.2.6-.45.35-.45-.2-.75-.15-.6.05.15.25-1.2,1.5-2.95,2.8-1.75,1.25-4.8,4.05-6.8,6.2-2,2.1-3.75,3.8-3.95,3.75s-.35.15-.35.5-1.2,2.4-2.7,4.65c-1.5,2.2-3.05,4.7-3.4,5.55-.45,1.1-.9,1.5-1.45,1.3-.65-.2-.7-.1-.2.2.5.4.45.8-.25,2.05-.9,1.6-.95,1.6-4.95,1.6-4.6,0-8.3.95-12.05,3.05l-2.6,1.5-4.1-2.85c-2.25-1.6-6.9-4.3-10.25-6-3.4-1.7-5.9-3.25-5.55-3.4s.15-.2-.4-.05c-.55.1-2-.1-3.25-.5-1.25-.45-1.65-.7-.85-.6.75.15,1.45.05,1.6-.15.1-.2-.95-.35-2.4-.35s-3.85-.25-5.35-.6c-3.95-.85-11.25-.75-14.4.2-1.45.45-2.85.65-3.1.5s-.9-.05-1.35.25c-.75.45-.7.5.35.25.8-.2.4.15-1,1-2.85,1.7-5.75,4.4-7.5,7.1-.75,1.15-1.45,2.05-1.55,1.9-.15-.1-.25.2-.3.65s-.7,2.75-1.4,5.1c-1.2,3.75-1.35,5.05-1.35,11.5-.05,4,.25,9.05.55,11.25.6,3.7,2.9,12.8,3.8,14.95.3.7.25.85-.15.6-.35-.2-.6-.05-.6.45,0,.45.3.75.65.6.9-.3,5.95,10.05,5.6,11.55-.15.65-.5,1-.75.85s-.6,0-.8.3c-.2.4-.15.45.2.25.8-.5.75-.3-.35,2.8-2.3,6.25-2.7,10.25-2.7,26.15,0,5.85-.2,10.9-.45,11.45-.35.65-.35.8.05.6.4-.25.55,14.6.6,54.05.1,60.9.05,58.15.6,58.15.2,0,.35.5.3,1.1,0,1.1-.05,1.1-.45.15l-.45-1v1c-.05,1.25.9,2.95.95,1.75.05-.4.5.6,1,2.25.55,1.65.85,3.45.75,4-.15.55-.1.7.05.35.4-.9,1.85,1.85,1.45,2.75-.1.4-.05.6.2.45s.55.05.75.45c.15.4,0,.7-.35.6-.3-.05-.65.45-.75,1.15-.15,1.15-.15,1.2.7.4.8-.75,1.05-.55,4.1,3.7,1.9,2.65,3.2,5.05,3.2,5.75,0,.85.15,1.05.45.6.2-.35.25-.9.1-1.2-.15-.25.7.4,1.9,1.55s3.7,3.1,5.6,4.4c1.85,1.3,3.2,2.6,3.05,2.85s-.55.3-.85.15c-.35-.2-.4-.15-.2.05.5.6,1.9.75,1.55.2-.45-.8.5-.5,4.1,1.25,3.25,1.6,12.75,4.3,15.05,4.3.55,0,1.15.35,1.35.75.15.4.55.75.9.75.45,0,.4-.15-.1-.5-.5-.3,43.25-.5,121.5-.6l122.25-.15,4.5-1.4c5.65-1.8,12.4-4.95,14.9-6.9,1-.85,2.1-1.35,2.45-1.15.3.2.4.15.2-.2-.35-.6,1.65-2.2,2.3-1.8.25.15.35.05.3-.15-.1-.25,1.25-2.05,2.95-3.95,5.55-6.15,9.75-14.1,11.4-21.3.1-.65.5-2.15.85-3.4.65-2.55,1.45-137,.8-137-.25,0-.4-.85-.4-1.95s-.25-3.15-.55-4.6c-.3-1.5-.6-3.25-.65-3.95,0-.7-.15-1.35-.3-1.5-.3-.3-3-6.85-3-7.3,0-.15.25-.1.6.1s.4.15.2-.25c-.2-.3-.55-.45-.75-.35-.55.35-2.15-2.6-1.75-3.3.2-.3.15-.4-.15-.25-.5.35-3.45-3.55-3.25-4.25.05-.25-.2-.35-.55-.25-.3.05-.55-.3-.55-.75.05-.5-.1-.8-.3-.65-.55.35-4.05-3.5-3.65-4,.25-.2.15-.25-.15-.1-.3.2-1.75-.6-3.25-1.7s-3.55-2.5-4.55-3.05c-1-.6-1.7-1.3-1.55-1.55.15-.3.05-.35-.2-.2-.3.2-1.75-.2-3.25-.85s-4-1.5-5.5-1.85c-1.55-.35-2.7-.85-2.6-1.05.15-.2.05-.4-.2-.4s-.65-2.1-.8-4.65c-.45-6.2-.5-6.8-.75-6.55-.4.4-1.6-1.8-1.3-2.3.2-.3.15-.45-.1-.4-.2.1-1.4-.55-2.65-1.4s-2.7-1.7-3.2-1.9c-.55-.15-11.85-.3-25.1-.3-27.45,0-26.65-.1-30.55,4.15-1.15,1.25-2.15,2.15-2.25,2.1-.25-.3-.4,1-.5,6.1-.1,2.55-.3,4.65-.5,4.65-.25,0-.4-.35-.4-.75s-.2-.75-.5-.75c-.25,0-.35.35-.2.75.25.65-4.35.75-39.8.75s-40.1-.05-39.8-.8c.15-.45.3-1.1.3-1.5,0-.45.25-.6.65-.4.4.25.45.2.1-.25-.35-.35-.4-1.9-.15-4.4.4-4.25-.2-14.25-1.15-18.65-.3-1.5-.6-3.35-.65-4.15,0-.75-.2-1.35-.4-1.35-.25,0-.65-1.15-1.2-3.75-.7-3.45-5.65-12.85-8.65-16.6-1.35-1.7-2.3-3.2-2.15-3.4.2-.2.1-.25-.15-.15-.7.2-4.8-3.15-4.45-3.65.15-.25-.05-.3-.4-.2-.4.15-1.2-.2-1.8-.75s-1.1-.95-1.1-.8-.7,0-1.55-.3-1.3-.65-1.05-.85c.25-.15-.75-.35-2.25-.35-1.55-.05-2.9-.3-3.1-.55-.35-.6-1.25-.6-3.3-.1ZM181.2,82.71c3.2,1.35,5.7,3.55,8.55,7.35,7,9.5,10.6,22.95,9.85,37-.75,13.6-4.45,20.6-11.95,22.65-5.65,1.55-14.9.05-23.15-3.75-3.95-1.85-10.7-6.05-10.7-6.65,0-.25.35-1.55.8-2.9.45-1.6.7-4.15.65-7.1-.05-3.2.1-4.9.55-5.4.95-1.15,6.85-4.45,9.75-5.5,4.1-1.45,5.45-4.05,3.25-6.25-2.05-2.05-7.5-.75-13.7,3.2-3.25,2.05-3.3,2.1-3.3,1,0-.45-1.45-2.25-3.25-4l-3.25-3.2,1.05-2.15c3.4-6.7,9.5-14.6,14.7-18.95,7.4-6.25,14-8,20.15-5.35ZM87.15,104.41c7.65,1.45,17.1,5.5,23.3,9.95,2.25,1.6,2.8,2.25,2.6,3.05-.15.55-.6,2.25-1,3.75s-.75,3.3-.75,4v1.3l-6.25-.2c-7-.25-8.3-.05-9.75,1.5-1.25,1.4-1.25,2.45.05,4.1,1,1.25,1.15,1.3,6.85,1.35,3.2,0,6.75.15,7.8.35,1.9.35,2,.45,2.8,3.35.85,3.2,2.45,6.05,5,8.95l1.55,1.75-1.8,3.15c-4.95,8.5-11.6,15.4-17.55,18.4-3.2,1.6-3.8,1.75-7.95,1.75-5.3,0-7-.75-11.45-4.8-10.7-9.8-17.5-30.45-15.35-46.7,1.7-12.85,8.55-17.55,21.9-15ZM139.75,115.16c2.4,1.2,5.4,4.5,6.65,7.35,2.3,5.25,1.55,12.9-1.75,17.25-4.85,6.35-15.3,6.9-21.1,1.1-3.85-3.8-5.7-11.2-4.3-17.05.75-3.1,3.7-7.05,6.45-8.55,3.9-2.15,9.95-2.2,14.05-.1ZM345.2,127.81c.6.7.85,3.3.7,6.75l-.1,2.1-24.6-.1-24.65-.15-.15-3.45c-.1-2.45.05-3.75.65-4.6l.75-1.2h23.45c18.65,0,23.55.15,23.95.65ZM352.45,144.86c12.8,2.45,23.4,10.85,28,22.15,2.45,6.05,3,9.3,3.05,18.5l.05,8.65h-47.65l-47.65.05-5.35-5.1c-11.65-11.15-24.7-18-41.1-21.55-4.55-.95-6.65-1.1-16-1.1s-11.5.15-15.85,1.1c-16.35,3.55-29.75,10.8-42.2,22.95l-3.75,3.7-46.9-.05h-46.9l.05-7.6c.1-7.75.8-12.5,2.3-15.45l.8-1.5,2.85,2.6c7.2,6.6,16.55,8.2,25.55,4.35,7.8-3.3,16.75-12.05,22.6-22l1.65-2.85,4.8.3c7.2.4,12.75-1.15,17-4.75l1.7-1.45,3.45,2.2c5.3,3.45,13.25,7.05,18.7,8.5,6.65,1.7,14.95,1.85,19.4.2,5.55-2,9.7-5.55,12.2-10.45l1.05-2.1h72.2c60.75,0,72.8.1,75.95.7ZM240.85,175.11c26.55,5.35,48.65,25.3,56.4,50.8,2.9,9.65,3.3,12.6,3.25,23.75,0,9.35-.15,10.75-1.4,16.15-3.55,15.2-10.15,26.8-21.55,37.75-10.15,9.8-21.9,16.1-35.75,19.2-4.55,1-6.6,1.15-15.5,1.15s-10.95-.15-15.45-1.15c-10.3-2.3-18.35-5.7-26.2-11.05-15.75-10.75-27-27.05-31.05-45.05-3.1-13.95-2.6-27.8,1.55-41.25,1.9-6.25,6.7-15.4,11.1-21.25,12.3-16.45,29.8-26.95,49.5-29.8,6.45-.9,18.7-.55,25.1.75ZM157.9,202.41c-.15.25-1.05,1.75-2,3.2-4.25,6.7-8.15,16.6-10.2,26.05-1,4.6-1.1,6.7-1.1,17-.05,13.3.55,17.1,4.2,28.05,4.05,12.25,9.6,21.1,19.2,30.75,15.55,15.5,33.8,23.4,55.8,24.05,23.4.75,43.65-7.15,60.05-23.35,13.2-13.05,21.2-28.8,24-47.25.95-6.35.7-19-.5-25.85-1.8-10.3-6.35-22.45-11.3-30.15-.95-1.5-1.75-2.8-1.75-2.9,0-.05,20.15-.1,44.75-.1h44.75v52.65c0,34.25-.2,54.35-.55,57.45-.9,8.25-3.85,16-8.25,21.7-6.15,8-16.4,13.95-26.45,15.45-2.3.3-44.9.5-121.3.5-102.25,0-118.4-.1-122.1-.75-10.7-1.85-19.9-7-25.8-14.45-4.6-5.75-7.35-12.05-8.6-19.7-.35-2.3-.55-20.75-.5-58.1,0-30.1,0-54.75.05-54.75h43.95c29.15,0,43.85.15,43.65.5Z"/>
  <path class="st0" d="M216.3,186.41c-6.4,1.05-11.55,2.7-17.25,5.45-22.5,10.9-35.9,32.4-35.9,57.55,0,7.65.7,12.85,2.7,19,3.05,9.6,8.25,18.1,15.7,25.55,11.3,11.35,24.8,17.4,41.25,18.45,28.45,1.85,56.4-17.9,64.3-45.5,2.25-7.85,2.85-19.4,1.45-28.05-2-12.35-8.5-25.2-17.35-34.3-6.55-6.75-16.5-12.8-25.9-15.8-9-2.85-20.5-3.8-29-2.35ZM239.55,195.11c16.2,4.3,27.85,13.45,35.65,28.05,8.4,15.7,8.8,35.2,1.1,50.5-7.25,14.4-20.85,25.65-35.75,29.55-15.15,4-32.45,1.1-45.35-7.6-4.6-3.1-11.6-10.1-14.65-14.7-6-9.05-8.8-16.65-9.7-26.05-1.05-11.25.85-21.15,6.05-31.3,8.05-15.8,23-26.6,40.7-29.4,5-.75,17.35-.25,21.95.95Z"/>
  <path class="st0" d="M184.35,239.01c-3.15,1.1-6.7,4.8-7.75,8.05-1.1,3.3-1.1,8.45,0,11.8,1.2,3.5,5.05,7.35,8.65,8.55,6.5,2.15,13.7-1.1,16.9-7.65,1.2-2.4,1.4-3.5,1.4-6.85,0-6.3-2.7-10.9-7.85-13.45-3.05-1.55-7.75-1.7-11.35-.45ZM189.85,244.61c1,1,1.45,1.95,1.45,3.05,0,2-2.35,4.5-4.25,4.5s-4.25-2.5-4.25-4.5,2.35-4.5,4.25-4.5c.8,0,1.9.6,2.8,1.45Z"/>
  <path class="st0" d="M257.55,238.96c-2.9,1-5.3,3.2-7,6.25-1.35,2.45-1.5,3.1-1.5,7.5s.15,5.05,1.5,7.7c2.9,5.65,8.75,8.6,14.45,7.3,13.25-2.95,15.8-22.25,3.7-28.25-3-1.5-7.75-1.7-11.15-.5ZM262.7,244.96c1.55,1.8,1.45,3.95-.35,5.75-1.65,1.6-2.9,1.8-5,.7-4.15-2.1-1.6-8.85,2.95-7.95.7.15,1.75.8,2.4,1.5Z"/>
  <path class="st0" d="M212,257.16c-4,1.5-1.6,10,3.9,14,4.2,3.05,11.05,4.05,16.3,2.3s10.1-7.8,10.1-12.45c0-2.25-1.4-3.85-3.4-3.85-1.7,0-2.65,1-3.8,4-1.05,2.85-1.65,3.6-3.8,4.95-3.35,2.05-10.1,1.05-12.7-1.85-.5-.6-1.3-2.25-1.8-3.7-.65-2.05-1.15-2.75-2.3-3.2-.85-.35-1.9-.4-2.5-.2Z"/>
</svg>